<?xml version="1.0" standalone="no"?>
<!DOCTYPE svg PUBLIC "-//W3C//DTD SVG 20010904//EN"
 "http://www.w3.org/TR/2001/REC-SVG-20010904/DTD/svg10.dtd">
<svg version="1.0" xmlns="http://www.w3.org/2000/svg"
 width="526.000000pt" height="280.000000pt" viewBox="0 0 526.000000 280.000000"
 preserveAspectRatio="xMidYMid meet">
<metadata>
Created by potrace 1.16, written by Peter Selinger 2001-2019
</metadata>
<g transform="translate(0.000000,280.000000) scale(0.100000,-0.100000)"
fill="#000000" stroke="none">
<path d="M842 2768 c-14 -50 -834 -2731 -839 -2745 -4 -10 76 -13 378 -13
l384 0 158 678 c87 372 178 758 202 858 23 99 66 290 95 425 54 258 58 274 64
268 2 -2 34 -134 71 -294 36 -159 91 -392 121 -517 29 -125 54 -232 54 -238 0
-6 -47 -10 -125 -10 l-125 0 0 -290 0 -290 194 0 194 0 37 -157 c21 -87 52
-219 69 -293 l32 -135 398 -3 c338 -2 397 0 393 12 -3 7 -186 607 -407 1332
-220 726 -410 1347 -421 1382 l-21 62 -448 0 -449 0 -9 -32z"/>
<path d="M2810 2430 l0 -370 375 0 375 0 0 370 0 370 -375 0 -375 0 0 -370z"/>
<path d="M2810 970 l0 -960 375 0 375 0 0 960 0 960 -375 0 -375 0 0 -960z"/>
<path d="M3900 776 l0 -776 205 0 205 0 0 611 0 611 133 -4 c106 -3 140 -8
171 -23 70 -35 96 -95 82 -189 -13 -86 -87 -142 -201 -153 l-65 -6 0 -163 0
-164 49 0 49 0 130 -252 130 -253 235 -3 236 -2 -175 309 -174 310 54 51 c122
116 173 307 132 501 -37 174 -145 280 -346 340 -71 21 -97 23 -462 27 l-388 4
0 -776z"/>
</g>
</svg>
