<?xml version="1.0" encoding="UTF-8"?>
<svg id="Capa_2" data-name="Capa 2" xmlns="http://www.w3.org/2000/svg" viewBox="0 0 475 86.22">
  <defs>
    <style>
      .cls-1, .cls-2 {
        fill: #1cbc94;
      }

      .cls-2 {
        font-family: Coolvetica-Regular, Coolvetica;
        font-size: 60px;
      }
    </style>
  </defs>
  <g id="Capa_1-2" data-name="Capa 1">
    <text class="cls-2" transform="translate(126.24 72.24)"><tspan x="0" y="0">RaspManager</tspan></text>
    <g id="uuid-68408c9e-63ae-42ac-934a-10b03c30487a" data-name="Capa 1-2">
      <g>
        <path class="cls-1" d="M29.53,20.44c.25-.09.54-.2.88-.33,3.37-1.14,5.82-2.52,7.37-4.15s2.32-3.56,2.32-5.82c0-.5-.06-1.27-.19-2.32-.34-1.73-1.15-3.26-2.44-4.59,0,0-.76-.79-1.62-1.35-2.3-1.5-6.21-1.43-9.3-.26-3.47,1.31-5.42,3.82-6.21,4.99h0s2.81,10.55-8.88,12.56c0,0-3.78-10.39,8.88-12.56L10.57,0c-2.87,0-5.33,1.01-7.39,3.03S0,7.98,0,10.93v31.77c0,2.9,1.04,5.36,3.11,7.35,2.07,1.99,4.56,2.99,7.46,2.99,1.88-.03,3.63-.54,5.24-1.53,1.61-.99,2.87-2.33,3.8-4.01.93-1.68,1.39-3.53,1.39-5.54v-9.32c0-2.01.1-3.59.3-4.75.2-1.16.55-2.14,1.07-2.94.51-.8,1.27-1.53,2.27-2.18,1-.65,2.3-1.28,3.87-1.9.43-.19.77-.33,1.02-.42h0Z"/>
        <path class="cls-1" d="M106.94,42.63c0-3.2-.84-6.11-2.51-8.75-1.66-2.64-3.93-4.72-6.8-6.26-2.87-1.53-5.99-2.29-9.37-2.28-2.39,0-4.81.41-7.25,1.23-1.58.54-3.48,1.34-5.68,2.39l-1.75.95-.81.45-.85-.54-.99-.67c-3.83-2.44-7.8-3.65-11.92-3.64-2.15,0-4.51.38-7.07,1.14-2.27.63-6.13,2.88-6.13,2.88l-7.53-3.84c-1.82,0-3.52.45-5.1,1.36-1.58.9-2.84,2.14-3.78,3.73-.94,1.58-1.4,3.32-1.4,5.2l.07,30.81c0,2.83,1.01,5.24,3.02,7.24,2.32,2.2,5.1,3.13,8.35,2.79,1.68-.18,3.28-.84,4.61-1.88,2.64-2.09,3.96-4.82,3.95-8.19l-.04-19.23c0-1.25.46-2.3,1.4-3.17s2.04-1.3,3.32-1.3c1.19.03,2.21.49,3.05,1.4.85.9,1.27,1.95,1.28,3.14l.04,19.12c0,1.27.25,2.56.74,3.86.49,1.3,1.18,2.44,2.07,3.41,1.98,1.97,4.38,2.96,7.19,2.96,2.81,0,5.14-.94,7-2.81,1.97-1.98,2.96-4.44,2.96-7.37l-.04-19.01c0-1.26.45-2.33,1.34-3.2s1.96-1.31,3.19-1.31c.6,0,1.17.11,1.71.33s1.03.55,1.46.99.77.94.99,1.51c.23.57.34,1.15.34,1.75l.05,18.66c0,3.07,1.13,5.63,3.36,7.67,1.73,1.59,3.97,2.58,6.32,2.76s4.26-.28,6.09-1.35c1.57-.92,2.83-2.18,3.77-3.79.94-1.61,1.41-3.39,1.41-5.34l-.05-23.77h0ZM36.42,42.39s-3.88-10.63,9.09-12.86c0,0,2.88,10.8-9.09,12.86Z"/>
      </g>
    </g>
  </g>
</svg>